HIERARCHY
ROOT Hips
{
	OFFSET -0.001795 -0.223333 0.028219
	CHANNELS 6 Xposition Yposition Zposition Zrotation Yrotation Xrotation 
	JOINT LeftUpLeg
	{
		OFFSET 0.069520 -0.091406 -0.006815
		CHANNELS 3 Zrotation Yrotation Xrotation
		JOINT LeftLeg
		{
			OFFSET 0.034277 -0.375199 -0.004496
			CHANNELS 3 Zrotation Yrotation Xrotation
			JOINT LeftFoot
			{
				OFFSET -0.013596 -0.397961 -0.043693
				CHANNELS 3 Zrotation Yrotation Xrotation
				JOINT LeftToe
				{
					OFFSET 0.026358 -0.055791 0.119288
					CHANNELS 3 Zrotation Yrotation Xrotation
					End Site
					{
						OFFSET 0.000000 0.000000 0.000000
					}
				}
			}
		}
	}
	JOINT RightUpLeg
	{
		OFFSET -0.067670 -0.090522 -0.004320
		CHANNELS 3 Zrotation Yrotation Xrotation
		JOINT RightLeg
		{
			OFFSET -0.038290 -0.382569 -0.008850
			CHANNELS 3 Zrotation Yrotation Xrotation
			JOINT RightFoot
			{
				OFFSET 0.015774 -0.398415 -0.042312
				CHANNELS 3 Zrotation Yrotation Xrotation
				JOINT RightToe
				{
					OFFSET -0.025372 -0.048144 0.123348
					CHANNELS 3 Zrotation Yrotation Xrotation
					End Site
					{
						OFFSET 0.000000 0.000000 0.000000
					}
				}
			}
		}
	}
	JOINT Spine
	{
		OFFSET -0.002533 0.108963 -0.026696
		CHANNELS 3 Zrotation Yrotation Xrotation
		JOINT Spine1
		{
			OFFSET 0.005487 0.135180 0.001092
			CHANNELS 3 Zrotation Yrotation Xrotation
			JOINT Spine2
			{
				OFFSET 0.001457 0.052922 0.025425
				CHANNELS 3 Zrotation Yrotation Xrotation
				JOINT Neck
				{
					OFFSET -0.002778 0.213870 -0.042857
					CHANNELS 3 Zrotation Yrotation Xrotation
					JOINT Head
					{
						OFFSET 0.005152 0.064970 0.051349
						CHANNELS 3 Zrotation Yrotation Xrotation
						End Site
						{
							OFFSET 0.000000 0.000000 0.000000
						}
					}
				}
				JOINT LeftShoulder
				{
					OFFSET 0.078845 0.121749 -0.034090
					CHANNELS 3 Zrotation Yrotation Xrotation
					JOINT LeftArm
					{
						OFFSET 0.090977 0.030469 -0.008868
						CHANNELS 3 Zrotation Yrotation Xrotation
						JOINT LeftForeArm
						{
							OFFSET 0.259612 -0.012772 -0.027456
							CHANNELS 3 Zrotation Yrotation Xrotation
							JOINT LeftHand
							{
								OFFSET 0.249234 0.008986 -0.001171
								CHANNELS 3 Zrotation Yrotation Xrotation
								End Site
								{
									OFFSET 0.000000 0.000000 0.000000
								}
							}
						}
					}
				}
				JOINT RightShoulder
				{
					OFFSET -0.081759 0.118833 -0.038615
					CHANNELS 3 Zrotation Yrotation Xrotation
					JOINT RightArm
					{
						OFFSET -0.096012 0.032551 -0.009143
						CHANNELS 3 Zrotation Yrotation Xrotation
						JOINT RightForeArm
						{
							OFFSET -0.253742 -0.013329 -0.021401
							CHANNELS 3 Zrotation Yrotation Xrotation
							JOINT RightHand
							{
								OFFSET -0.255298 0.007772 -0.005559
								CHANNELS 3 Zrotation Yrotation Xrotation
								End Site
								{
									OFFSET 0.000000 0.000000 0.000000
								}
							}
						}
					}
				}
			}
		}
	}
}
MOTION
Frames: 14
Frame Time: 0.050000
-1.014007 0.866389 -0.220288 -2.027260 -72.485256 12.381639 14.120426 15.430910 -32.675440 6.857113 3.687607 29.762886 -2.120473 -3.130557 11.745271 0.000000 0.000000 0.000000 -27.478717 8.863023 -35.485990 19.599550 2.995526 29.935718 6.188536 19.474573 0.800955 0.000000 0.000000 0.000000 16.272382 12.048155 60.856828 5.131522 0.647253 -35.993146 -5.974937 -18.911341 21.339436 -5.426002 -0.312434 -45.422857 0.000000 0.000000 0.000000 -33.005890 -15.086441 25.939729 -18.656445 -34.284286 -2.130132 -20.999870 -54.726497 13.157914 0.000000 0.000000 0.000000 10.850620 36.756463 5.738681 41.034870 25.091457 4.431323 11.937133 37.339826 1.066522 0.000000 0.000000 0.000000 
-1.027062 0.866060 -0.256672 1.385808 -72.454658 9.368736 15.167007 15.937947 -32.159998 6.743275 3.227329 28.170806 -2.642287 -3.598099 16.455924 0.000000 0.000000 0.000000 -28.054499 9.001311 -36.039219 23.384073 2.673421 29.531678 4.962433 18.399035 -0.797191 0.000000 0.000000 0.000000 17.125207 11.120545 59.513760 4.554628 0.835517 -36.242652 -6.241815 -19.250585 21.517348 -7.349252 0.162958 -44.757602 0.000000 0.000000 0.000000 -32.702372 -14.958109 26.197273 -20.659788 -34.458562 -1.964513 -19.396090 -53.435081 12.068870 0.000000 0.000000 0.000000 11.400097 36.075649 4.986441 41.114453 22.421844 3.927225 10.544321 35.344441 0.665499 0.000000 0.000000 0.000000 
-1.040119 0.869352 -0.293400 5.171127 -72.092754 5.302659 16.205291 15.524192 -30.321800 6.045329 2.790532 25.569804 -1.968112 -2.611662 21.278009 0.000000 0.000000 0.000000 -27.575706 8.816808 -35.685988 25.826361 2.598421 29.449900 4.740366 17.757738 -0.993466 0.000000 0.000000 0.000000 18.387209 9.984642 58.332199 4.643434 0.735521 -35.783192 -6.613247 -18.763769 21.379420 -8.796717 0.664778 -44.163735 0.000000 0.000000 0.000000 -32.920032 -15.538421 26.554371 -22.953376 -34.030944 -1.783187 -15.725757 -51.111176 9.540407 0.000000 0.000000 0.000000 12.443382 35.054075 4.241028 40.406396 19.864320 3.545703 10.230104 33.830862 0.685636 0.000000 0.000000 0.000000 
-1.052623 0.874920 -0.328517 10.601975 -72.783567 -0.011730 16.946219 15.203416 -28.446686 5.307402 2.577581 23.218414 -2.527836 -3.023553 24.807132 0.000000 0.000000 0.000000 -26.658986 8.819683 -35.621392 26.159211 2.823913 29.232560 4.979393 18.338607 -0.824650 0.000000 0.000000 0.000000 18.876636 9.581231 56.858343 2.823358 0.922784 -35.611810 -6.347645 -18.671861 22.237824 -10.027093 0.936065 -43.589536 0.000000 0.000000 0.000000 -30.837053 -15.936035 26.140024 -27.542060 -34.118030 -1.020408 -13.273257 -48.885107 8.262143 0.000000 0.000000 0.000000 13.034407 34.039346 3.097576 41.296824 17.720288 3.232112 9.833135 31.982510 0.486333 0.000000 0.000000 0.000000 
-1.064358 0.881906 -0.360127 14.571393 -73.555263 -4.250332 17.318261 14.398918 -26.148669 5.776626 2.173287 21.569956 -3.281488 -3.853207 25.680781 0.000000 0.000000 0.000000 -24.929575 8.559770 -34.526816 25.775284 3.128550 28.148388 6.024447 19.665350 0.262524 0.000000 0.000000 0.000000 19.173921 9.289142 55.504261 2.741903 0.945196 -35.363750 -6.144111 -17.752650 22.248078 -10.087467 0.837105 -42.607544 0.000000 0.000000 0.000000 -30.770533 -15.720236 26.049056 -30.526489 -34.241407 -0.674631 -10.144500 -46.729957 6.522728 0.000000 0.000000 0.000000 15.183314 33.920435 2.167688 40.173342 15.175285 3.083062 9.057893 29.882918 0.489028 0.000000 0.000000 0.000000 
-1.075109 0.886677 -0.387276 21.054176 -73.671551 -10.161289 16.354532 13.274483 -25.296046 5.504534 2.190099 20.828259 -3.751379 -4.511633 24.679037 0.000000 0.000000 0.000000 -25.383199 8.640477 -34.568867 26.661113 3.156992 27.313798 6.756173 19.358375 1.576308 0.000000 0.000000 0.000000 18.706615 8.924150 53.533382 2.409174 0.870185 -34.701030 -4.976807 -16.423280 21.574203 -10.705405 1.110624 -41.050351 0.000000 0.000000 0.000000 -28.881433 -15.264895 24.675701 -34.705477 -35.228333 0.573476 -10.412405 -43.506410 6.387835 0.000000 0.000000 0.000000 14.241152 32.029206 1.487662 40.872094 15.111927 2.923103 9.325534 28.378293 0.502032 0.000000 0.000000 0.000000 
-1.084846 0.889653 -0.409637 26.696056 -75.149557 -15.655670 16.205061 13.511627 -25.111805 6.021595 2.596514 22.250917 -5.254197 -5.799284 25.049122 0.000000 0.000000 0.000000 -24.666893 8.913761 -35.183951 27.055858 3.497980 27.741277 7.863844 19.893514 3.166894 0.000000 0.000000 0.000000 18.127348 8.865503 51.328460 3.354952 0.899019 -34.179359 -4.762555 -14.672810 21.932973 -12.535091 1.894531 -41.643894 0.000000 0.000000 0.000000 -29.719169 -13.427635 24.325734 -35.466110 -36.062723 0.513378 -11.278680 -42.517733 6.722624 0.000000 0.000000 0.000000 14.534790 32.202600 1.209974 39.987583 14.573796 2.845214 11.484055 26.446820 1.028890 0.000000 0.000000 0.000000 
-1.093710 0.890829 -0.427701 32.119152 -75.367184 -20.278467 14.742389 12.862581 -25.786253 6.707565 3.494964 25.530216 -4.836209 -5.770539 21.665178 0.000000 0.000000 0.000000 -25.603488 9.359394 -36.684610 28.866619 3.506480 28.385161 8.313185 18.491603 4.709288 0.000000 0.000000 0.000000 18.618992 8.174405 49.352422 1.292105 1.092395 -34.012789 -2.822342 -15.141846 20.979689 -14.511073 2.678215 -41.465422 0.000000 0.000000 0.000000 -28.596037 -13.108365 24.219627 -37.560757 -37.538195 1.582205 -11.331562 -40.762836 6.578047 0.000000 0.000000 0.000000 13.680932 31.062348 0.232635 40.925228 12.824784 2.514381 16.247623 26.596979 1.555242 0.000000 0.000000 0.000000 
-1.101469 0.891983 -0.441579 35.189203 -75.539125 -23.806848 13.441320 12.263191 -26.150204 8.256317 4.631948 29.870113 -7.200956 -8.215585 19.423997 0.000000 0.000000 0.000000 -25.188843 9.582552 -37.405619 30.056903 3.680994 30.472278 8.903173 17.511012 6.268603 0.000000 0.000000 0.000000 21.274021 7.789937 49.563461 0.221343 1.357625 -34.204478 -4.037888 -16.742374 21.415099 -13.562509 1.971647 -40.584465 0.000000 0.000000 0.000000 -28.951039 -13.024119 24.929649 -35.225139 -40.090681 1.725344 -11.921614 -40.376126 6.528807 0.000000 0.000000 0.000000 15.019826 30.755125 -1.078695 39.987372 11.913830 2.686678 20.096111 25.535735 2.061719 0.000000 0.000000 0.000000 
-1.107788 0.894100 -0.451669 41.940440 -76.343881 -30.633105 12.018837 11.261922 -25.663831 8.883248 5.969810 32.823823 -8.086604 -9.566998 15.679366 0.000000 0.000000 0.000000 -23.853744 9.697766 -37.587738 28.058062 4.081725 31.962451 9.536600 19.313262 6.352317 0.000000 0.000000 0.000000 22.011292 8.119570 49.967600 0.433700 1.290079 -33.906091 -4.279294 -17.519238 21.207851 -14.550543 2.344303 -40.819701 0.000000 0.000000 0.000000 -29.592041 -13.234899 25.857916 -33.196260 -41.864448 1.568448 -11.430371 -40.210878 6.141332 0.000000 0.000000 0.000000 14.472706 31.521602 -0.971044 39.591980 12.100991 2.818986 23.266189 25.682246 2.348750 0.000000 0.000000 0.000000 
-1.112453 0.895386 -0.457901 47.414603 -77.226463 -36.584863 9.693234 9.909351 -25.590341 8.808012 7.476786 34.841679 -7.910066 -9.736864 12.737643 0.000000 0.000000 0.000000 -22.517833 9.822990 -37.508418 26.825679 4.610775 33.346110 10.211299 20.651990 6.749916 0.000000 0.000000 0.000000 23.557021 8.875981 51.958009 0.133061 1.204902 -33.312975 -4.805591 -19.970907 20.947087 -13.408216 1.512094 -40.780912 0.000000 0.000000 0.000000 -26.833936 -14.693114 25.479464 -34.658569 -43.512396 3.340830 -10.175391 -40.993510 5.814445 0.000000 0.000000 0.000000 12.772161 32.584061 -0.433210 40.161299 13.496779 3.031048 25.320992 27.052612 2.413283 0.000000 0.000000 0.000000 
-1.115660 0.895280 -0.460410 49.292390 -77.341577 -38.610189 7.822396 9.253967 -26.590994 10.389803 8.011244 37.235874 -11.798779 -13.704227 13.527548 0.000000 0.000000 0.000000 -21.886938 9.917957 -37.732995 26.285981 4.866055 34.562150 10.239935 20.956185 6.670035 0.000000 0.000000 0.000000 25.862869 8.744454 52.958085 0.076080 1.156830 -33.066109 -6.338581 -21.315792 21.163010 -12.268390 0.843154 -40.692254 0.000000 0.000000 0.000000 -26.777945 -16.442126 26.444974 -32.166069 -44.364765 3.106229 -11.459869 -43.379959 6.442824 0.000000 0.000000 0.000000 12.694257 31.670129 -0.824911 40.183496 15.474406 3.374544 27.283422 27.785123 2.744057 0.000000 0.000000 0.000000 
-1.117328 0.894949 -0.459695 50.115152 -77.530728 -39.543679 6.757792 8.854942 -27.002259 10.661648 8.249523 37.746428 -11.171343 -13.279985 12.945367 0.000000 0.000000 0.000000 -21.568321 9.978432 -37.797971 24.170913 5.104715 34.566818 12.605539 26.008593 7.921569 0.000000 0.000000 0.000000 27.694009 8.869536 54.678030 0.042120 1.145950 -33.198184 -7.124040 -23.463152 21.446269 -12.356471 0.797348 -40.830143 0.000000 0.000000 0.000000 -25.555391 -17.852900 26.563721 -31.488878 -44.547328 3.439988 -12.915290 -46.864654 7.734762 0.000000 0.000000 0.000000 11.648435 31.821115 -0.501379 38.988585 15.915783 3.313983 29.241821 29.444504 3.021431 0.000000 0.000000 0.000000 
-1.117995 0.892438 -0.456949 54.773914 -77.915277 -43.901183 5.365989 9.087723 -28.792237 10.782880 8.455383 38.218405 -14.093777 -16.428283 11.631465 0.000000 0.000000 0.000000 -23.337023 10.517687 -38.915702 21.900276 4.855738 32.124550 21.151033 36.380701 15.751522 0.000000 0.000000 0.000000 28.985472 9.067134 55.506532 0.194007 0.888229 -32.138424 -7.811862 -24.168034 21.102666 -11.942712 0.553655 -40.446877 0.000000 0.000000 0.000000 -25.049033 -18.797511 26.799115 -31.449169 -45.492325 3.915205 -13.675098 -45.985388 7.781927 0.000000 0.000000 0.000000 9.616526 30.905350 -0.043357 39.414638 19.136655 3.613480 28.972772 29.771633 2.775528 0.000000 0.000000 0.000000 
